<?xml version="1.0" encoding="UTF-8" standalone="no"?>
<!-- Created with Inkscape (http://www.inkscape.org/) -->

<svg
   xmlns:dc="http://purl.org/dc/elements/1.1/"
   xmlns:cc="http://creativecommons.org/ns#"
   xmlns:rdf="http://www.w3.org/1999/02/22-rdf-syntax-ns#"
   xmlns:svg="http://www.w3.org/2000/svg"
   xmlns="http://www.w3.org/2000/svg"
   xmlns:sodipodi="http://sodipodi.sourceforge.net/DTD/sodipodi-0.dtd"
   xmlns:inkscape="http://www.inkscape.org/namespaces/inkscape"
   width="74.462318mm"
   height="88.805275mm"
   viewBox="0 0 263.84286 314.66436"
   id="svg2"
   version="1.1"
   inkscape:version="0.91 r13725"
   sodipodi:docname="triang-ineq.svg">
  <sodipodi:namedview
     id="base"
     pagecolor="#ffffff"
     bordercolor="#666666"
     borderopacity="1.0"
     inkscape:pageopacity="0.0"
     inkscape:pageshadow="2"
     inkscape:zoom="1.4"
     inkscape:cx="168.69757"
     inkscape:cy="160.65368"
     inkscape:document-units="px"
     inkscape:current-layer="layer1"
     showgrid="false"
     inkscape:window-width="1440"
     inkscape:window-height="781"
     inkscape:window-x="0"
     inkscape:window-y="1"
     inkscape:window-maximized="1"
     fit-margin-top="0"
     fit-margin-left="0"
     fit-margin-right="0"
     fit-margin-bottom="0" />
  <defs
     id="defs4" />
  <metadata
     id="metadata7">
    <rdf:RDF>
      <cc:Work
         rdf:about="">
        <dc:format>image/svg+xml</dc:format>
        <dc:type
           rdf:resource="http://purl.org/dc/dcmitype/StillImage" />
        <dc:title></dc:title>
      </cc:Work>
    </rdf:RDF>
  </metadata>
  <g
     id="layer1"
     inkscape:groupmode="layer"
     inkscape:label="Layer 1"
     transform="translate(-140.57857,-125.69068)">
    <circle
       r="131.07143"
       cy="308.43362"
       cx="272.5"
       id="path4136"
       style="opacity:0.325;fill:#21a5ba;fill-opacity:1;stroke:#000000;stroke-width:1.70000005;stroke-miterlimit:4;stroke-dasharray:none;stroke-opacity:1" />
    <circle
       r="2.1428571"
       cy="333.79077"
       cx="203.57144"
       id="path4138"
       style="opacity:1;fill:#000000;fill-opacity:1;stroke:#000000;stroke-width:1.70000005;stroke-miterlimit:4;stroke-dasharray:none;stroke-opacity:1" />
    <circle
       r="2.1428571"
       cy="215.21933"
       cx="260"
       id="path4138-4"
       style="opacity:1;fill:#000000;fill-opacity:1;stroke:#000000;stroke-width:1.70000005;stroke-miterlimit:4;stroke-dasharray:none;stroke-opacity:1" />
    <circle
       r="2.1428571"
       cy="321.64792"
       cx="342.85715"
       id="path4138-6"
       style="opacity:1;fill:#000000;fill-opacity:1;stroke:#000000;stroke-width:1.70000005;stroke-miterlimit:4;stroke-dasharray:none;stroke-opacity:1" />
    <g
       id="g4170"
       transform="matrix(0.73213539,0,0,0.73213539,138.05034,7.9002346)">
      <g
         word-spacing="normal"
         letter-spacing="normal"
         font-size-adjust="none"
         font-stretch="normal"
         font-weight="normal"
         font-variant="normal"
         font-style="normal"
         stroke-miterlimit="10.433"
         xml:space="preserve"
         transform="matrix(1.0629921,0,0,-1.0629921,-186.02362,789.27165)"
         id="content"
         style="font-style:normal;font-variant:normal;font-weight:normal;font-stretch:normal;letter-spacing:normal;word-spacing:normal;text-anchor:start;fill:none;fill-opacity:1;fill-rule:evenodd;stroke:#000000;stroke-linecap:butt;stroke-linejoin:miter;stroke-miterlimit:10.43299961;stroke-dasharray:none;stroke-dashoffset:0;stroke-opacity:1"><path
           id="path4173"
           d="m 489.25,414.28 -1.25,0 c -0.25,-1.3 -0.45,-2.46 -0.89,-3.64 -0.25,-0.8 -0.4,-1.21 -3.29,-1.21 l -3.99,0 c 0.64,2.8 2.19,5.19 4.44,8.47 2.34,3.55 4.37,6.99 4.37,10.92 0,6.93 -6.71,12.5 -15.14,12.5 -8.56,0 -15.18,-5.68 -15.18,-12.5 0,-3.93 2.03,-7.37 4.37,-10.92 2.19,-3.28 3.78,-5.67 4.44,-8.47 l -3.99,0 c -2.89,0 -3.04,0.41 -3.29,1.16 -0.39,1.14 -0.64,2.44 -0.89,3.69 l -1.25,0 1.65,-8.08 7.97,0 c 1.1,0 1.24,0 1.24,1.05 0,3.48 -1.53,7.87 -2.69,11.06 -1.05,2.89 -2.44,6.83 -2.44,10.56 0,7.97 5.49,11.36 10.02,11.36 4.78,0 10.06,-3.59 10.06,-11.36 0,-3.73 -1.34,-7.53 -2.8,-11.61 -0.73,-2.09 -2.33,-6.58 -2.33,-10.01 0,-1.05 0.15,-1.05 1.29,-1.05 l 7.92,0 z"
           inkscape:connector-curvature="0"
           style="fill:#000000;stroke-width:0" /></g>    </g>
    <path
       style="fill:none;fill-rule:evenodd;stroke:#000000;stroke-width:1px;stroke-linecap:butt;stroke-linejoin:miter;stroke-opacity:1"
       d="M 278.57143,177.36219 172.85715,395.93361 249.28571,128.79075"
       id="path4185"
       inkscape:connector-curvature="0"
       sodipodi:nodetypes="ccc" />
    <path
       style="fill:none;fill-rule:evenodd;stroke:#000000;stroke-width:1px;stroke-linecap:butt;stroke-linejoin:miter;stroke-opacity:1"
       d="M 234.28571,182.36217 386.42857,373.79075"
       id="path4187"
       inkscape:connector-curvature="0"
       sodipodi:nodetypes="cc" />
    <path
       style="fill:none;fill-rule:evenodd;stroke:#000000;stroke-width:1px;stroke-linecap:butt;stroke-linejoin:miter;stroke-opacity:1"
       d="M 387.14285,375.21932 248.57142,125.93361"
       id="path4189"
       inkscape:connector-curvature="0"
       sodipodi:nodetypes="cc" />
    <path
       style="fill:none;fill-rule:evenodd;stroke:#000000;stroke-width:1px;stroke-linecap:butt;stroke-linejoin:miter;stroke-opacity:1"
       d="m 172.85714,393.79075 213.57143,-20"
       id="path4191"
       inkscape:connector-curvature="0" />
    <g
       transform="matrix(0.61279052,0,0,0.61279052,26.26673,122.93338)"
       id="g4209">
      <g
         style="font-style:normal;font-variant:normal;font-weight:normal;font-stretch:normal;letter-spacing:normal;word-spacing:normal;text-anchor:start;fill:none;fill-opacity:1;fill-rule:evenodd;stroke:#000000;stroke-linecap:butt;stroke-linejoin:miter;stroke-miterlimit:10.43299961;stroke-dasharray:none;stroke-dashoffset:0;stroke-opacity:1"
         id="g4211"
         transform="matrix(1.0629921,0,0,-1.0629921,-186.02362,789.27165)"
         xml:space="preserve"
         stroke-miterlimit="10.433"
         font-style="normal"
         font-variant="normal"
         font-weight="normal"
         font-stretch="normal"
         font-size-adjust="none"
         letter-spacing="normal"
         word-spacing="normal"><path
           style="fill:#000000;stroke-width:0"
           inkscape:connector-curvature="0"
           d="m 472.16,421.25 0.03,0.13 0.04,0.15 0.04,0.16 0.04,0.18 0.06,0.19 0.06,0.21 0.06,0.22 0.07,0.22 0.08,0.23 0.09,0.24 0.1,0.25 0.1,0.24 0.11,0.25 0.12,0.25 0.13,0.25 0.14,0.25 0.15,0.24 0.15,0.24 0.17,0.23 0.18,0.22 0.18,0.22 0.2,0.2 0.21,0.19 0.22,0.18 0.23,0.16 0.25,0.14 0.12,0.07 0.13,0.06 0.14,0.05 0.13,0.05 0.14,0.05 0.14,0.04 0.15,0.03 0.15,0.03 0.15,0.02 0.16,0.02 0.16,0.01 0.16,0 c 0.25,0 1.44,0 2.48,-0.64 -1.39,-0.25 -2.39,-1.5 -2.39,-2.69 0,-0.79 0.55,-1.75 1.89,-1.75 1.1,0 2.69,0.89 2.69,2.89 0,2.6 -2.94,3.28 -4.63,3.28 -2.89,0 -4.64,-2.64 -5.23,-3.78 -1.25,3.28 -3.94,3.78 -5.37,3.78 -5.19,0 -8.04,-6.42 -8.04,-7.67 0,-0.5 0.5,-0.5 0.61,-0.5 0.39,0 0.55,0.11 0.64,0.55 1.69,5.28 4.99,6.53 6.68,6.53 0.95,0 2.68,-0.44 2.68,-3.33 0,-1.54 -0.84,-4.89 -2.68,-11.86 -0.8,-3.09 -2.54,-5.18 -4.74,-5.18 -0.3,0 -1.44,0 -2.48,0.65 1.25,0.24 2.34,1.28 2.34,2.69 0,1.34 -1.09,1.73 -1.84,1.73 -1.5,0 -2.75,-1.29 -2.75,-2.89 0,-2.28 2.5,-3.28 4.68,-3.28 3.3,0 5.08,3.49 5.24,3.78 0.59,-1.84 2.39,-3.78 5.37,-3.78 5.14,0 7.99,6.42 7.99,7.67 0,0.5 -0.45,0.5 -0.61,0.5 -0.44,0 -0.55,-0.2 -0.64,-0.54 -1.64,-5.33 -5.03,-6.53 -6.63,-6.53 -1.95,0 -2.75,1.59 -2.75,3.29 0,1.1 0.3,2.19 0.86,4.38 z"
           id="path4213" /></g>    </g>
    <g
       transform="matrix(0.47343349,0,0,0.47343349,182.82318,155.3883)"
       id="g4251">
      <g
         style="font-style:normal;font-variant:normal;font-weight:normal;font-stretch:normal;letter-spacing:normal;word-spacing:normal;text-anchor:start;fill:none;fill-opacity:1;fill-rule:evenodd;stroke:#000000;stroke-linecap:butt;stroke-linejoin:miter;stroke-miterlimit:10.43299961;stroke-dasharray:none;stroke-dashoffset:0;stroke-opacity:1"
         word-spacing="normal"
         letter-spacing="normal"
         font-size-adjust="none"
         font-stretch="normal"
         font-weight="normal"
         font-variant="normal"
         font-style="normal"
         stroke-miterlimit="10.433"
         xml:space="preserve"
         transform="matrix(1.0629921,0,0,-1.0629921,-186.02362,789.27165)"
         id="g4253"><path
           style="fill:#000000;stroke-width:0"
           inkscape:connector-curvature="0"
           id="path4255"
           d="m 479.74,425.18 0.01,0.04 0.01,0.03 0.01,0.06 0.02,0.05 0.01,0.06 0.01,0.05 0.02,0.04 0.01,0.05 0.01,0.04 0.01,0.04 0,0.04 0.01,0.04 0.01,0.04 0.01,0.03 0,0.03 0.01,0.03 0,0.03 0.01,0.03 0,0.03 0.01,0.05 0,0.06 0,0.05 0,0.05 0.01,0.05 0,0.03 0,0.03 0,0.03 0,0.03 c 0,0.91 -0.69,1.35 -1.44,1.35 -0.5,0 -1.3,-0.3 -1.75,-1.05 -0.1,-0.25 -0.5,-1.78 -0.69,-2.69 -0.36,-1.29 -0.7,-2.64 -1,-3.98 l -2.25,-8.97 c -0.19,-0.75 -2.33,-4.23 -5.62,-4.23 -2.54,0 -3.1,2.18 -3.1,4.03 0,2.29 0.86,5.39 2.55,9.76 0.8,2.05 1,2.6 1,3.6 0,2.23 -1.59,4.07 -4.09,4.07 -4.74,0 -6.58,-7.21 -6.58,-7.67 0,-0.5 0.5,-0.5 0.61,-0.5 0.5,0 0.54,0.11 0.79,0.91 1.35,4.69 3.33,6.17 5.03,6.17 0.4,0 1.25,0 1.25,-1.59 0,-1.25 -0.5,-2.53 -0.85,-3.49 -1.99,-5.28 -2.9,-8.12 -2.9,-10.47 0,-4.42 3.15,-5.92 6.08,-5.92 1.96,0 3.64,0.85 5.03,2.24 -0.64,-2.58 -1.23,-5.03 -3.23,-7.68 -1.3,-1.68 -3.19,-3.14 -5.48,-3.14 -0.69,0 -2.94,0.16 -3.79,2.1 0.8,0 1.46,0 2.14,0.61 0.5,0.43 1,1.09 1,2.03 0,1.55 -1.34,1.75 -1.84,1.75 -1.14,0 -2.8,-0.8 -2.8,-3.24 0,-2.5 2.21,-4.34 5.29,-4.34 5.14,0 10.26,4.55 11.67,10.17 z" /></g>    </g>
    <g
       transform="matrix(0.61077475,0,0,0.61077475,71.405382,23.65516)"
       id="g4299">
      <g
         style="font-style:normal;font-variant:normal;font-weight:normal;font-stretch:normal;letter-spacing:normal;word-spacing:normal;text-anchor:start;fill:none;fill-opacity:1;fill-rule:evenodd;stroke:#000000;stroke-linecap:butt;stroke-linejoin:miter;stroke-miterlimit:10.43299961;stroke-dasharray:none;stroke-dashoffset:0;stroke-opacity:1"
         id="g4301"
         transform="matrix(1.0629921,0,0,-1.0629921,-186.02362,789.27165)"
         xml:space="preserve"
         stroke-miterlimit="10.433"
         font-style="normal"
         font-variant="normal"
         font-weight="normal"
         font-stretch="normal"
         font-size-adjust="none"
         letter-spacing="normal"
         word-spacing="normal"><path
           style="fill:#000000;stroke-width:0"
           inkscape:connector-curvature="0"
           d="m 462.14,410.34 0.25,0.27 0.24,0.25 0.24,0.25 0.23,0.24 0.22,0.23 0.22,0.22 0.21,0.22 0.2,0.21 0.2,0.2 0.2,0.19 0.19,0.19 0.19,0.19 0.18,0.17 0.19,0.18 0.35,0.33 0.34,0.32 0.33,0.3 0.33,0.29 0.32,0.29 0.65,0.56 0.33,0.29 0.33,0.28 c 0,0.05 3.08,2.69 4.88,4.49 4.73,4.64 5.83,7.03 5.83,7.21 0,0.5 -0.46,0.5 -0.55,0.5 -0.35,0 -0.5,-0.09 -0.75,-0.54 -1.49,-2.39 -2.53,-3.19 -3.74,-3.19 -1.2,0 -1.79,0.75 -2.54,1.59 -0.94,1.16 -1.78,2.14 -3.44,2.14 -3.73,0 -6.02,-4.62 -6.02,-5.67 0,-0.25 0.14,-0.54 0.6,-0.54 0.45,0 0.54,0.25 0.64,0.54 0.95,2.3 3.84,2.35 4.23,2.35 1.05,0 2,-0.36 3.14,-0.75 2,-0.75 2.55,-0.75 3.85,-0.75 -1.8,-2.14 -5.99,-5.74 -6.92,-6.53 l -4.49,-4.18 c -3.39,-3.34 -5.14,-6.18 -5.14,-6.53 0,-0.5 0.5,-0.5 0.59,-0.5 0.41,0 0.5,0.1 0.8,0.64 1.16,1.75 2.64,3.1 4.24,3.1 1.15,0 1.65,-0.46 2.89,-1.89 0.86,-1.05 1.75,-1.85 3.18,-1.85 4.94,0 7.83,6.33 7.83,7.67 0,0.25 -0.2,0.5 -0.59,0.5 -0.46,0 -0.55,-0.29 -0.71,-0.65 -1.14,-3.24 -4.32,-4.17 -5.98,-4.17 -0.98,0 -1.89,0.29 -2.94,0.64 -1.68,0.64 -2.43,0.84 -3.48,0.84 -0.1,0 -0.89,0 -1.35,-0.14 z"
           id="path4303" /></g>    </g>
    <path
       inkscape:connector-curvature="0"
       id="path4328"
       d="m 176.313,391.09602 c 0.23036,-0.7258 6.15575,-13.15487 13.16753,-27.62016 10.88605,-22.45789 12.99285,-26.33779 14.41972,-26.55555 0.91907,-0.14027 1.92113,-0.64869 2.22681,-1.12984 0.76368,-1.20205 0.71728,-3.66033 -0.0846,-4.48196 -0.68317,-0.7 51.93341,-110.44541 53.90544,-112.43367 0.82385,-0.83064 1.21365,-0.8613 1.93028,-0.15186 0.49388,0.48893 18.59323,23.13587 40.22078,50.32653 32.42452,40.76486 39.15968,49.60315 38.39286,50.38145 -2.34281,2.37786 0.50415,6.34751 3.68499,5.13816 1.4417,-0.54814 3.32968,1.59482 20.9484,23.77747 10.65014,13.40895 19.25503,24.48876 19.12199,24.62181 -0.26925,0.26924 -204.07597,19.44279 -206.69777,19.44552 -1.28499,10e-4 -1.56158,-0.29347 -1.23644,-1.3179 z m 39.35875,-49.45689 c 0.34559,-0.55918 0.69727,-0.55918 1.25645,0 1.50741,1.50741 5.29133,0.89829 6.86753,-1.10552 1.47671,-1.87734 1.96019,-3.83629 0.9447,-3.82773 -0.29464,0.002 -1.08326,0.96677 -1.75249,2.14286 -0.76911,1.35163 -1.79119,2.13834 -2.77807,2.13834 -1.44895,0 -1.53153,-0.25117 -1.14782,-3.49104 0.48197,-4.06947 2.24064,-8.65182 3.32051,-8.65182 0.4129,0 0.75073,0.64286 0.75073,1.42857 0,1.5999 2.51848,2.04107 3.05824,0.53572 0.9566,-2.66786 -2.26646,-4.24914 -5.32474,-2.6124 -1.05463,0.56442 -1.67434,0.56442 -2.23876,0 -2.06042,-2.06042 -7.64903,0.87573 -7.62968,4.00851 0.006,0.9671 0.45781,0.71162 1.83749,-1.03897 1.00716,-1.27793 2.49209,-2.32143 3.30345,-2.32143 1.32383,0 1.43139,0.3101 1.05642,3.04582 -0.58626,4.27721 -2.11357,8.57708 -3.16956,8.92333 -0.52846,0.17327 -0.89286,-0.33485 -0.89286,-1.24502 0,-1.1844 -0.36764,-1.48532 -1.59985,-1.30952 -1.82771,0.26076 -2.59332,2.60928 -1.149,3.52458 1.36909,0.86763 4.7184,0.77623 5.28731,-0.14428 z m 114.1634,-12.04874 c 0.98717,-0.37532 2.32399,-1.48996 2.9707,-2.47697 1.28853,-1.96655 4.19467,-12.4972 3.61015,-13.08172 -1.01578,-1.01579 -2.3806,0.77604 -3.1587,4.14698 -0.96155,4.16563 -1.89339,5.66554 -3.5198,5.66554 -1.09702,0 -1.07861,-0.54968 0.25484,-7.60799 0.36031,-1.90721 0.17584,-2.33001 -1.20829,-2.76931 -1.22816,-0.3898 -1.9547,-0.12181 -2.92785,1.07998 -0.71189,0.87914 -1.28412,2.12534 -1.27162,2.76931 0.0195,1.00467 0.16792,0.97906 1.04567,-0.18042 0.56262,-0.74322 1.15125,-1.7075 1.30806,-2.14286 0.15682,-0.43536 0.527,-0.5669 0.82264,-0.29231 0.29563,0.27459 0.17892,1.52791 -0.25936,2.78516 -1.69127,4.85159 -0.39147,8.40799 2.77075,7.58104 1.73214,-0.45295 1.76087,-0.2451 0.2788,2.01682 -0.63447,0.96832 -1.82376,1.76058 -2.64286,1.76058 -1.15833,0 -1.2988,-0.19048 -0.63213,-0.85714 1.25928,-1.25928 1.04765,-2 -0.57143,-2 -2.55141,0 -1.76529,3.92829 0.84636,4.22932 0.26907,0.031 1.2969,-0.25068 2.28407,-0.62601 z m -73.03471,-88.3328 c 1.26839,-1.14787 2.05741,-1.04699 4.25801,0.54441 1.73244,1.25285 4.43727,0.21543 5.90163,-2.26354 1.52146,-2.57562 0.83233,-3.98194 -0.7777,-1.58709 -1.079,1.60493 -3.77093,2.1076 -6.23113,1.16353 -0.89832,-0.34472 -0.1918,-1.31619 3.16933,-4.35783 2.37894,-2.15282 4.66676,-4.55215 5.08405,-5.33185 0.93872,-1.75403 0.0891,-2.83296 -0.87469,-1.11076 -0.86819,1.55137 -1.93,1.57749 -3.57591,0.088 -1.61194,-1.45878 -4.5635,-0.81939 -5.658,1.2257 -1.01005,1.88729 -0.48937,2.41424 1.28847,1.30396 0.83558,-0.52183 2.19283,-0.66685 3.40165,-0.36346 l 2.01133,0.50481 -5.11781,5.1522 c -2.81479,2.8337 -5.11781,5.3857 -5.11781,5.6711 0,0.8459 0.87309,0.59662 2.23858,-0.63914 z"
       style="opacity:0.48600003;fill:#ff0000;fill-opacity:1;stroke:#000000;stroke-width:1.21428573;stroke-miterlimit:4;stroke-dasharray:none;stroke-opacity:1" />
    <path
       inkscape:connector-curvature="0"
       id="path4330"
       d="m 177.56368,382.77279 c 2.75339,-11.06105 56.744,-198.17922 57.1432,-198.04425 0.30437,0.10291 5.52549,6.45332 11.60248,14.11202 8.88448,11.19692 10.96941,14.24229 10.64245,15.54499 -0.22364,0.89104 -0.06,2.03774 0.36366,2.5482 1.05515,1.27139 -52.77836,112.66744 -54.91488,113.63369 -1.48842,0.67315 -2.5784,3.39296 -1.83913,4.58913 0.35807,0.57937 -21.85463,47.67983 -22.96124,48.68765 -0.21568,0.19643 -0.23212,-0.28571 -0.0365,-1.07143 z"
       style="opacity:0.48600003;fill:#ff0000;fill-opacity:1;stroke:#000000;stroke-width:1.21428573;stroke-miterlimit:4;stroke-dasharray:none;stroke-opacity:1" />
    <path
       inkscape:connector-curvature="0"
       id="path4332"
       d="m 247.51349,197.7101 c -6.03731,-7.6647 -10.82047,-14.09227 -10.62924,-14.2835 0.19123,-0.19124 4.09147,-1.14065 8.66719,-2.10981 9.23952,-1.95698 29.46624,-3.73104 30.52038,-2.6769 0.40017,0.40018 -2.41311,6.99491 -7.19212,16.85938 -5.91906,12.21765 -8.1617,16.19528 -9.11933,16.17436 -0.78196,-0.0171 -5.4879,-5.38266 -12.24688,-13.96353 z"
       style="opacity:0.48600003;fill:#ff0000;fill-opacity:1;stroke:#000000;stroke-width:1.21428573;stroke-miterlimit:4;stroke-dasharray:none;stroke-opacity:1" />
    <path
       inkscape:connector-curvature="0"
       id="path4334"
       d="m 362.419,342.27087 c -8.44642,-10.61525 -15.67857,-20.00658 -16.07142,-20.86961 -0.39286,-0.86304 -1.72584,-2.51465 -2.96218,-3.67024 -1.23634,-1.1556 -19.69049,-24.08894 -41.00923,-50.96299 -31.63804,-39.88239 -38.8557,-49.37791 -39.2748,-51.66978 -0.47199,-2.58113 0.103,-4.07877 7.12044,-18.54597 7.42884,-15.31538 7.6632,-15.69262 8.7251,-14.04451 2.62043,4.06699 99.33097,178.57226 99.09339,178.8049 -0.14528,0.14226 -7.17487,-8.42655 -15.6213,-19.0418 z"
       style="opacity:0.48600003;fill:#ff0000;fill-opacity:1;stroke:#000000;stroke-width:1.21428573;stroke-miterlimit:4;stroke-dasharray:none;stroke-opacity:1" />
    <path
       inkscape:connector-curvature="0"
       id="path4336"
       d="m 235.46535,180.36694 c 2.45307,-9.17401 14.36709,-50.06166 14.53752,-49.89123 0.1271,0.1271 5.85083,10.3388 12.7194,22.69266 l 12.48831,22.46157 -5.86007,0.50944 c -14.04245,1.22079 -20.67098,2.12321 -27.21377,3.70495 -6.16853,1.49126 -6.9467,1.55222 -6.67139,0.52261 z"
       style="opacity:0.48600003;fill:#ff0000;fill-opacity:1;stroke:#000000;stroke-width:1.21428573;stroke-miterlimit:4;stroke-dasharray:none;stroke-opacity:1" />
    <g
       id="g4368"
       transform="translate(-47.142857,-20)">
      <g
         word-spacing="normal"
         letter-spacing="normal"
         font-size-adjust="none"
         font-stretch="normal"
         font-weight="normal"
         font-variant="normal"
         font-style="normal"
         stroke-miterlimit="10.433"
         xml:space="preserve"
         transform="matrix(1.0629921,0,0,-1.0629921,-186.02362,789.27165)"
         id="g4370"
         style="font-style:normal;font-variant:normal;font-weight:normal;font-stretch:normal;letter-spacing:normal;word-spacing:normal;text-anchor:start;fill:none;fill-opacity:1;fill-rule:evenodd;stroke:#000000;stroke-linecap:butt;stroke-linejoin:miter;stroke-miterlimit:10.43299961;stroke-dasharray:none;stroke-dashoffset:0;stroke-opacity:1"><path
           id="path4372"
           d="m 477.54,440.98 -0.04,0.06 -0.03,0.06 -0.03,0.05 -0.02,0.05 -0.03,0.05 -0.03,0.05 -0.03,0.05 -0.02,0.04 -0.03,0.04 -0.03,0.04 -0.02,0.04 -0.03,0.03 -0.03,0.04 -0.03,0.03 -0.03,0.03 -0.03,0.03 -0.03,0.02 -0.04,0.03 -0.04,0.02 -0.03,0.02 -0.05,0.02 -0.04,0.01 -0.05,0.02 -0.04,0.01 -0.06,0.01 -0.05,0.01 -0.06,0.01 -0.06,0.01 -0.07,0 -0.07,0.01 -0.07,0 -0.04,0 -0.04,0 c -0.85,0 -0.94,-0.25 -1.28,-0.89 l -0.32,-4.09 13.41,-26.91 -26.86,0 13.45,26.91 0.32,4.09 -16.85,-33.78 c -0.25,-0.45 -0.25,-0.55 -0.25,-0.59 0,-0.41 0.3,-0.41 1.1,-0.41 l 34.58,0 c 0.79,0 1.09,0 1.09,0.41 0,0.04 0,0.14 -0.25,0.59 z"
           inkscape:connector-curvature="0"
           style="fill:#000000;stroke-width:0" /></g>    </g>
  </g>
</svg>
